<?xml version="1.0" ?><svg viewBox="0 0 26.72 44.66" xmlns="http://www.w3.org/2000/svg"><defs><style>.cls-1{fill:#f7931e;}</style></defs><title/><g data-name="Layer 2" id="Layer_2"><g data-name="Layer 1" id="Layer_1-2"><path class="cls-1" d="M8.25,35.59h-1V32.84A4.18,4.18,0,0,1,5.6,29.51c.27-2.78-2.06-6.76-3.07-8.35-.19-.25-.39-.56-.59-.89l-.48-.69.05-.07a13.36,13.36,0,1,1,23.7,0l0,.06-.51.75c-.17.29-.39.62-.63.94-1,1.52-3.3,5.48-3,8.15,0,1.21,0,3-1,4v2.15h-1l-5.88,0ZM3.62,19.18h0c.2.33.38.59.56.85,1.43,2.24,3.73,6.39,3.41,9.57a2.15,2.15,0,0,0,1.13,1.82l.52.28v1.88l4,0,4.88,0V32.34l.51-.29c.47-.26.47-1.92.47-2.55-.31-3.08,2-7.2,3.38-9.38.24-.33.43-.61.6-.9l.08-.14a11.36,11.36,0,1,0-19.6,0Z"/><rect class="cls-1" height="2" width="13" x="6.86" y="36.66"/><rect class="cls-1" height="2" width="13" x="6.86" y="39.58"/><rect class="cls-1" height="2" width="7" x="9.86" y="42.66"/></g></g></svg>